<svg width="279" height="277" viewBox="0 0 279 277" fill="none" xmlns="http://www.w3.org/2000/svg">
<path d="M150.997 276.994H149.997H148.997H147.997H146.997H145.997H144.997H143.997H142.997H141.997H140.997H139.997H138.997H137.997H136.997H135.997H134.997H133.997H132.997H131.997H130.997H129.997L129 275.997L128.997 275.994H127.997H126.997H125.997H124.997H123.997H122.997H121.997H120.997L120 274.997L119.997 274.994H118.997H117.997H116.997H115.997H114.997L114 273.997L113.997 273.994H112.997H111.997H110.997H109.997L109 272.997L108.997 272.994H107.997H106.997H105.997L105 271.997L104.997 271.994H103.997H102.997H101.997L101 270.997L100.997 270.994H99.9969H98.9969H97.9969L97 269.997L96.9969 269.994H95.9969H94.9969L94 268.997L93.9969 268.994H92.9969H91.9969L91 267.997L90.9969 267.994H89.9969L89 266.997L88.9969 266.994H87.9969H86.9969L86 265.997L85.9969 265.994H84.9969L84 264.997L83.9969 264.994H82.9969L82 263.997L81.9969 263.994H80.9969H79.9969L79 262.997L78.9969 262.994H77.9969L77 261.997L76.9969 261.994H75.9969L75 260.997L74.9969 260.994H73.9969L73 259.997L72.9969 259.994L72 258.997L71.9969 258.994H70.9969L70 257.997L69.9969 257.994H68.9969L68 256.997L67.9969 256.994H66.9969L66 255.997L65.9969 255.994L65 254.997L64.9969 254.994H63.9969L63 253.997L62.9969 253.994L62 252.997L61.9969 252.994H60.9969L60 251.997L59.9969 251.994L59 250.997L58.9969 250.994H57.9969L57 249.997L56.9969 249.994L56 248.997L55.9969 248.994H54.9969L54 247.997L53.9969 247.994L53 246.997L52.9969 246.994L52 245.997L51.9969 245.994L51 244.997L50.9969 244.994H49.9969L49 243.997L48.9969 243.994L48 242.997L47.9969 242.994L47 241.997L46.9969 241.994L46 240.997L45.9969 240.994L45 239.997L44.9969 239.994L44 238.997L43.9969 238.994L43 237.997L42.9969 237.994L42 236.997L41.9969 236.994L41 235.997L40.9969 235.994L40 234.997L39.9969 234.994L39 233.997L38.9969 233.994L38 232.997L37.9969 232.994L37 231.997L36.9969 231.994L36 230.997L35.9969 230.994L35 229.997L34.9969 229.994L34 228.997L33.9969 228.994L33 227.997L32.9969 227.994L32 226.997V225.997L31.9969 225.994L31 224.997L30.9969 224.994L30 223.997L29.9969 223.994L29 222.997L28.9969 222.994L28 221.997V220.997L27.9969 220.994L27 219.997L26.9969 219.994L26 218.997L25.9969 218.994L25 217.997V216.997L24.9969 216.994L24 215.997L23.9969 215.994L23 214.997V213.997L22.9969 213.994L22 212.997L21.9969 212.994L21 211.997V210.997L20.9969 210.994L20 209.997V208.997L19.9969 208.994L19 207.997L18.9969 207.994L18 206.997V205.997L17.9969 205.994L17 204.997V203.997L16.9969 203.994L16 202.997V201.997L15.9969 201.994L15 200.997V199.997L14.9969 199.994L14 198.997V197.997L13.9969 197.994L13 196.997V195.997L12.9969 195.994L12 194.997V193.997L11.9969 193.994L11 192.997V191.997V190.997L10.9969 190.994L10 189.997V188.997L9.99686 188.994L9 187.997V186.997V185.997L8.99686 185.994L8 184.997V183.997V182.997L7.99686 182.994L7 181.997V180.997V179.997L6.99686 179.994L6 178.997V177.997V176.997L5.99686 176.994L5 175.997V174.997V173.997V172.997L4.99686 172.994L4 171.997V170.997V169.997V168.997V167.997L3.99686 167.994L3 166.997V165.997V164.997V163.997V162.997L2.99686 162.994L2 161.997V160.997V159.997V158.997V157.997V156.997V155.997L1.99686 155.994L1 154.997V153.997V152.997V151.997V150.997V149.997V148.997V147.997V146.997V145.997V144.997V143.997V142.997L0.996864 142.994L0 141.997V140.997V139.997V138.997V137.997V136.997V135.997V134.997V133.997V132.997L0.996864 132L1 131.997V130.997V129.997V128.997V127.997V126.997V125.997V124.997V123.997V122.997V121.997V120.997V119.997L1.99686 119L2 118.997V117.997V116.997V115.997V114.997V113.997L2.99686 113L3 112.997V111.997V110.997V109.997V108.997L3.99686 108L4 107.997V106.997V105.997V104.997V103.997L4.99686 103L5 102.997V101.997V100.997L5.99686 100L6 99.9969V98.9969V97.9969V96.9969L6.99686 96L7 95.9969V94.9969V93.9969L7.99686 93L8 92.9969V91.9969L8.99686 91L9 90.9969V89.9969V88.9969L9.99686 88L10 87.9969V86.9969V85.9969L10.9969 85L11 84.9969V83.9969L11.9969 83L12 82.9969V81.9969L12.9969 81L13 80.9969V79.9969V78.9969L13.9969 78L14 77.9969V76.9969L14.9969 76L15 75.9969V74.9969L15.9969 74L16 73.9969V72.9969L16.9969 72L17 71.9969L17.9969 71L18 70.9969V69.9969L18.9969 69L19 68.9969V67.9969L19.9969 67L20 66.9969L20.9969 66L21 65.9969V64.9969L21.9969 64L22 63.9969V62.9969L22.9969 62L23 61.9969L23.9969 61L24 60.9969V59.9969L24.9969 59L25 58.9969L25.9969 58L26 57.9969L26.9969 57L27 56.9969V55.9969L27.9969 55L28 54.9969L28.9969 54L29 53.9969L29.9969 53L30 52.9969V51.9969L30.9969 51L31 50.9969L31.9969 50L32 49.9969L32.9969 49L33 48.9969L33.9969 48L34 47.9969L34.9969 47L35 46.9969V45.9969L35.9969 45L36 44.9969L36.9969 44L37 43.9969L37.9969 43L38 42.9969L38.9969 42L39 41.9969L39.9969 41L40 40.9969L40.9969 40L41 39.9969L41.9969 39L42 38.9969L42.9969 38L43 37.9969L43.9969 37L44 36.9969L44.9969 36H45.9969L46 35.9969L46.9969 35L47 34.9969L47.9969 34L48 33.9969L48.9969 33L49 32.9969L49.9969 32L50 31.9969L50.9969 31H51.9969L52 30.9969L52.9969 30L53 29.9969L53.9969 29L54 28.9969L54.9969 28L55 27.9969L55.9969 27H56.9969L57 26.9969L57.9969 26L58 25.9969L58.9969 25H59.9969L60 24.9969L60.9969 24L61 23.9969L61.9969 23H62.9969L63 22.9969L63.9969 22L64 21.9969L64.9969 21H65.9969L66 20.9969L66.9969 20H67.9969L68 19.9969L68.9969 19L69 18.9969L69.9969 18H70.9969L71 17.9969L71.9969 17H72.9969L73 16.9969L73.9969 16H74.9969L75 15.9969L75.9969 15H76.9969L77 14.9969L77.9969 14H78.9969L79 13.9969L79.9969 13H80.9969L81 12.9969L81.9969 12H82.9969H83.9969L84 11.9969L84.9969 11H85.9969L86 10.9969L86.9969 10H87.9969L88 9.99686L88.9969 9H89.9969H90.9969L91 8.99686L91.9969 8H92.9969H93.9969L94 7.99686L94.9969 7H95.9969H96.9969L97 6.99686L97.9969 6H98.9969H99.9969H100.997L101 5.99686L101.997 5H102.997H103.997L104 4.99686L104.997 4H105.997H106.997H107.997H108.997L109 3.99686L109.997 3H110.997H111.997H112.997H113.997L114 2.99686L114.997 2H115.997H116.997H117.997H118.997H119.997H120.997L121 1.99686L121.997 1H122.997H123.997H124.997H125.997H126.997H127.997H128.997H129.997H130.997H131.997L132 0.996864L132.997 0H133.997H134.997H135.997H136.997H137.997H138.997H139.997H140.997H141.997H142.997H143.997H144.997H145.997H146.997L147.994 0.996864L147.997 1H148.997H149.997H150.997H151.997H152.997H153.997H154.997H155.997H156.997H157.997L158.994 1.99686L158.997 2H159.997H160.997H161.997H162.997H163.997H164.997L165.994 2.99686L165.997 3H166.997H167.997H168.997H169.997L170.994 3.99686L170.997 4H171.997H172.997H173.997L174.994 4.99686L174.997 5H175.997H176.997H177.997L178.994 5.99686L178.997 6H179.997H180.997L181.994 6.99686L181.997 7H182.997H183.997L184.994 7.99686L184.997 8H185.997H186.997L187.994 8.99686L187.997 9H188.997H189.997L190.994 9.99686L190.997 10H191.997L192.994 10.9969L192.997 11H193.997L194.994 11.9969L194.997 12H195.997H196.997L197.994 12.9969L197.997 13H198.997L199.994 13.9969L199.997 14H200.997L201.994 14.9969L201.997 15H202.997L203.994 15.9969L203.997 16H204.997L205.994 16.9969L205.997 17H206.997L207.994 17.9969L207.997 18H208.997L209.994 18.9969L209.997 19L210.994 19.9969L210.997 20H211.997L212.994 20.9969L212.997 21H213.997L214.994 21.9969L214.997 22L215.994 22.9969L215.997 23H216.997L217.994 23.9969L217.997 24L218.994 24.9969L218.997 25H219.997L220.994 25.9969L220.997 26L221.994 26.9969L221.997 27L222.994 27.9969L222.997 28H223.997L224.994 28.9969L224.997 29L225.994 29.9969L225.997 30L226.994 30.9969L226.997 31L227.994 31.9969L227.997 32H228.997L229.994 32.9969L229.997 33L230.994 33.9969L230.997 34L231.994 34.9969L231.997 35L232.994 35.9969L232.997 36L233.994 36.9969L233.997 37L234.994 37.9969L234.997 38L235.994 38.9969L235.997 39L236.994 39.9969L236.997 40H237.997L238.994 40.9969L238.997 41L239.994 41.9969L239.997 42L240.994 42.9969V43.9969L240.997 44L241.994 44.9969L241.997 45L242.994 45.9969L242.997 46L243.994 46.9969L243.997 47L244.994 47.9969L244.997 48L245.994 48.9969L245.997 49L246.994 49.9969L246.997 50L247.994 50.9969V51.9969L247.997 52L248.994 52.9969L248.997 53L249.994 53.9969L249.997 54L250.994 54.9969L250.997 55L251.994 55.9969V56.9969L251.997 57L252.994 57.9969L252.997 58L253.994 58.9969V59.9969L253.997 60L254.994 60.9969L254.997 61L255.994 61.9969V62.9969L255.997 63L256.994 63.9969L256.997 64L257.994 64.9969V65.9969L257.997 66L258.994 66.9969L258.997 67L259.994 67.9969V68.9969L259.997 69L260.994 69.9969V70.9969L260.997 71L261.994 71.9969V72.9969L261.997 73L262.994 73.9969L262.997 74L263.994 74.9969V75.9969V76.9969L263.997 77L264.994 77.9969V78.9969L264.997 79L265.994 79.9969V80.9969L265.997 81L266.994 81.9969V82.9969L266.997 83L267.994 83.9969V84.9969L267.997 85L268.994 85.9969V86.9969V87.9969L268.997 88L269.994 88.9969V89.9969V90.9969L269.997 91L270.994 91.9969V92.9969V93.9969L270.997 94L271.994 94.9969V95.9969V96.9969L271.997 97L272.994 97.9969V98.9969V99.9969L272.997 100L273.994 100.997V101.997V102.997V103.997L273.997 104L274.994 104.997V105.997V106.997V107.997L274.997 108L275.994 108.997V109.997V110.997V111.997V112.997L275.997 113L276.994 113.997V114.997V115.997V116.997V117.997V118.997V119.997L276.997 120L277.994 120.997V121.997V122.997V123.997V124.997V125.997V126.997V127.997V128.997V129.997V130.997V131.997L277.997 132L278.994 132.997V133.997V134.997V135.997V136.997V137.997V138.997V139.997V140.997V141.997V142.997V143.997V144.997L277.997 145.994L277.994 145.997V146.997V147.997V148.997V149.997V150.997V151.997V152.997V153.997V154.997V155.997L276.997 156.994L276.994 156.997V157.997V158.997V159.997V160.997V161.997V162.997L275.997 163.994L275.994 163.997V164.997V165.997V166.997V167.997L274.997 168.994L274.994 168.997V169.997V170.997V171.997L273.997 172.994L273.994 172.997V173.997V174.997V175.997L272.997 176.994L272.994 176.997V177.997V178.997V179.997L271.997 180.994L271.994 180.997V181.997V182.997L270.997 183.994L270.994 183.997V184.997V185.997L269.997 186.994L269.994 186.997V187.997L268.997 188.994L268.994 188.997V189.997V190.997L267.997 191.994L267.994 191.997V192.997L266.997 193.994L266.994 193.997V194.997V195.997L265.997 196.994L265.994 196.997V197.997L264.997 198.994L264.994 198.997V199.997L263.997 200.994L263.994 200.997V201.997L262.997 202.994L262.994 202.997V203.997L261.997 204.994L261.994 204.997L260.997 205.994L260.994 205.997V206.997L259.997 207.994L259.994 207.997V208.997L258.997 209.994L258.994 209.997V210.997L257.997 211.994L257.994 211.997L256.997 212.994L256.994 212.997V213.997L255.997 214.994L255.994 214.997L254.997 215.994L254.994 215.997V216.997L253.997 217.994L253.994 217.997L252.997 218.994L252.994 218.997V219.997L251.997 220.994L251.994 220.997L250.997 221.994L250.994 221.997L249.997 222.994L249.994 222.997V223.997L248.997 224.994L248.994 224.997L247.997 225.994L247.994 225.997L246.997 226.994L246.994 226.997L245.997 227.994L245.994 227.997L244.997 228.994L244.994 228.997V229.997L243.997 230.994L243.994 230.997L242.997 231.994L242.994 231.997L241.997 232.994L241.994 232.997L240.997 233.994L240.994 233.997L239.997 234.994L239.994 234.997L238.997 235.994L238.994 235.997L237.997 236.994L237.994 236.997L236.997 237.994L236.994 237.997L235.997 238.994L235.994 238.997L234.997 239.994L234.994 239.997L233.997 240.994L233.994 240.997L232.997 241.994H231.997L231.994 241.997L230.997 242.994L230.994 242.997L229.997 243.994L229.994 243.997L228.997 244.994L228.994 244.997L227.997 245.994L227.994 245.997L226.997 246.994L226.994 246.997L225.997 247.994H224.997L224.994 247.997L223.997 248.994L223.994 248.997L222.997 249.994L222.994 249.997L221.997 250.994H220.997L220.994 250.997L219.997 251.994L219.994 251.997L218.997 252.994H217.997L217.994 252.997L216.997 253.994L216.994 253.997L215.997 254.994H214.997L214.994 254.997L213.997 255.994L213.994 255.997L212.997 256.994H211.997L211.994 256.997L210.997 257.994H209.997L209.994 257.997L208.997 258.994H207.997L207.994 258.997L206.997 259.994L206.994 259.997L205.997 260.994H204.997L204.994 260.997L203.997 261.994H202.997L202.994 261.997L201.997 262.994H200.997L200.994 262.997L199.997 263.994H198.997L198.994 263.997L197.997 264.994H196.997H195.997L195.994 264.997L194.997 265.994H193.997L193.994 265.997L192.997 266.994H191.997L191.994 266.997L190.997 267.994H189.997H188.997L188.994 267.997L187.997 268.994H186.997H185.997L185.994 268.997L184.997 269.994H183.997H182.997L182.994 269.997L181.997 270.994H180.997H179.997L179.994 270.997L178.997 271.994H177.997H176.997H175.997L175.994 271.997L174.997 272.994H173.997H172.997H171.997L171.994 272.997L170.997 273.994H169.997H168.997H167.997H166.997L166.994 273.997L165.997 274.994H164.997H163.997H162.997H161.997H160.997L160.994 274.997L159.997 275.994H158.997H157.997H156.997H155.997H154.997H153.997H152.997H151.997L151.994 275.997L150.997 276.994Z" fill="#426C98"/>
<path d="M146 268.995L146.997 267.998H147.997H148.997H149.997H150.997H151.997H152.997H153.997H154.997H155.997H156.997L157 267.995L157.997 266.998H158.997H159.997H160.997H161.997H162.997H163.997L164 266.995L164.997 265.998H165.997H166.997H167.997H168.997L169 265.995L169.997 264.998H170.997H171.997H172.997L173 264.995L173.997 263.998H174.997H175.997H176.997L177 263.995L177.997 262.998H178.997H179.997L180 262.995L180.997 261.998H181.997H182.997L183 261.995L183.997 260.998H184.997H185.997L186 260.995L186.997 259.998H187.997L188 259.995L188.997 258.998H189.997H190.997L191 258.995L191.997 257.998H192.997L193 257.995L193.997 256.998H194.997L195 256.995L195.997 255.998H196.997L197 255.995L197.997 254.998H198.997L199 254.995L199.997 253.998H200.997L201 253.995L201.997 252.998H202.997L203 252.995L203.997 251.998H204.997L205 251.995L205.997 250.998H206.997L207 250.995L207.997 249.998L208 249.995L208.997 248.998H209.997L210 248.995L210.997 247.998L211 247.995L211.997 246.998H212.997L213 246.995L213.997 245.998L214 245.995L214.997 244.998H215.997L216 244.995L216.997 243.998L217 243.995L217.997 242.998H218.997L219 242.995L219.997 241.998L220 241.995L220.997 240.998L221 240.995L221.997 239.998L222 239.995L222.997 238.998H223.997L224 238.995L224.997 237.998L225 237.995L225.997 236.998L226 236.995L226.997 235.998L227 235.995L227.997 234.998L228 234.995L228.997 233.998L229 233.995L229.997 232.998L230 232.995L230.997 231.998L231 231.995L231.997 230.998L232 230.995L232.997 229.998L233 229.995L233.997 228.998L234 228.995L234.997 227.998L235 227.995L235.997 226.998L236 226.995L236.997 225.998L237 225.995L237.997 224.998L238 224.995L238.997 223.998L239 223.995L239.997 222.998L240 222.995L240.997 221.998L241 221.995V220.995L241.997 219.998L242 219.995L242.997 218.998L243 218.995L243.997 217.998L244 217.995L244.997 216.998L245 216.995V215.995L245.997 214.998L246 214.995L246.997 213.998L247 213.995V212.995L247.997 211.998L248 211.995L248.997 210.998L249 210.995V209.995L249.997 208.998L250 208.995L250.997 207.998L251 207.995V206.995L251.997 205.998L252 205.995L252.997 204.998L253 204.995V203.995L253.997 202.998L254 202.995V201.995L254.997 200.998L255 200.995V199.995L255.997 198.998L256 198.995V197.995L256.997 196.998L257 196.995V195.995L257.997 194.998L258 194.995V193.995L258.997 192.998L259 192.995V191.995L259.997 190.998L260 190.995V189.995L260.997 188.998L261 188.995V187.995V186.995L261.997 185.998L262 185.995V184.995V183.995L262.997 182.998L263 182.995V181.995L263.997 180.998L264 180.995V179.995V178.995L264.997 177.998L265 177.995V176.995V175.995V174.995L265.997 173.998L266 173.995V172.995V171.995V170.995L266.997 169.998L267 169.995V168.995V167.995V166.995L267.997 165.998L268 165.995V164.995V163.995V162.995V161.995L268.997 160.998L269 160.995V159.995V158.995V157.995V156.995V155.995V154.995L269.997 153.998L270 153.995V152.995V151.995V150.995V149.995V148.995V147.995V146.995V145.995V144.995V143.995V142.995V141.995V140.995V139.995V138.995V137.995V136.995V135.995V134.995V133.995V132.995V131.995V130.995V129.995V128.995V127.995V126.995V125.995V124.995V123.995V122.995L269.997 122.992L269 121.995V120.995V119.995V118.995V117.995V116.995V115.995L268.997 115.992L268 114.995V113.995V112.995V111.995V110.995L267.997 110.992L267 109.995V108.995V107.995V106.995L266.997 106.992L266 105.995V104.995V103.995V102.995L265.997 102.992L265 101.995V100.995V99.9953L264.997 99.9922L264 98.9953V97.9953V96.9953L263.997 96.9922L263 95.9953V94.9953V93.9953L262.997 93.9922L262 92.9953V91.9953V90.9953L261.997 90.9922L261 89.9953V88.9953L260.997 88.9922L260 87.9953V86.9953V85.9953L259.997 85.9922L259 84.9953V83.9953L258.997 83.9922L258 82.9953V81.9953L257.997 81.9922L257 80.9953V79.9953L256.997 79.9922L256 78.9953V77.9953L255.997 77.9922L255 76.9953V75.9953L254.997 75.9922L254 74.9953V73.9953L253.997 73.9922L253 72.9953L252.997 72.9922L252 71.9953V70.9953L251.997 70.9922L251 69.9953V68.9953L250.997 68.9922L250 67.9953L249.997 67.9922L249 66.9953V65.9953L248.997 65.9922L248 64.9953L247.997 64.9922L247 63.9953V62.9953L246.997 62.9922L246 61.9953L245.997 61.9922L245 60.9953L244.997 60.9922L244 59.9953V58.9953L243.997 58.9922L243 57.9953L242.997 57.9922L242 56.9953L241.997 56.9922L241 55.9953L240.997 55.9922L240 54.9953V53.9953L239.997 53.9922L239 52.9953L238.997 52.9922L238 51.9953L237.997 51.9922L237 50.9953L236.997 50.9922L236 49.9953L235.997 49.9922L235 48.9953L234.997 48.9922L234 47.9953L233.997 47.9922L233 46.9953L232.997 46.9922L232 45.9953L231.997 45.9922L231 44.9953L230.997 44.9922L230 43.9953L229.997 43.9922L229 42.9953L228.997 42.9922L228 41.9953L227.997 41.9922L227 40.9953L226.997 40.9922H225.997L225 39.9953L224.997 39.9922L224 38.9953L223.997 38.9922L223 37.9953L222.997 37.9922L222 36.9953L221.997 36.9922L221 35.9953L220.997 35.9922H219.997L219 34.9953L218.997 34.9922L218 33.9953L217.997 33.9922L217 32.9953L216.997 32.9922H215.997L215 31.9953L214.997 31.9922L214 30.9953L213.997 30.9922H212.997L212 29.9953L211.997 29.9922L211 28.9953L210.997 28.9922H209.997L209 27.9953L208.997 27.9922L208 26.9953L207.997 26.9922H206.997L206 25.9953L205.997 25.9922H204.997L204 24.9953L203.997 24.9922H202.997L202 23.9953L201.997 23.9922H200.997L200 22.9953L199.997 22.9922L199 21.9953L198.997 21.9922H197.997L197 20.9953L196.997 20.9922H195.997H194.997L194 19.9953L193.997 19.9922H192.997L192 18.9953L191.997 18.9922H190.997L190 17.9953L189.997 17.9922H188.997H187.997L187 16.9953L186.997 16.9922H185.997L185 15.9953L184.997 15.9922H183.997H182.997L182 14.9953L181.997 14.9922H180.997H179.997L179 13.9953L178.997 13.9922H177.997H176.997L176 12.9953L175.997 12.9922H174.997H173.997H172.997L172 11.9953L171.997 11.9922H170.997H169.997H168.997L168 10.9953L167.997 10.9922H166.997H165.997H164.997H163.997L163 9.99532L162.997 9.99219H161.997H160.997H159.997H158.997H157.997H156.997L156 8.99532L155.997 8.99219H154.997H153.997H152.997H151.997H150.997H149.997H148.997H147.997H146.997H145.997H144.997H143.997H142.997L142 7.99532L141.997 7.99219H140.997H139.997H138.997L138.994 7.99532L137.997 8.99219H136.997H135.997H134.997H133.997H132.997H131.997H130.997H129.997H128.997H127.997H126.997H125.997H124.997H123.997L123.994 8.99532L122.997 9.99219H121.997H120.997H119.997H118.997H117.997H116.997L116.994 9.99532L115.997 10.9922H114.997H113.997H112.997H111.997H110.997L110.994 10.9953L109.997 11.9922H108.997H107.997H106.997L106.994 11.9953L105.997 12.9922H104.997H103.997L103.994 12.9953L102.997 13.9922H101.997H100.997H99.9973L99.9941 13.9953L98.9973 14.9922H97.9973H96.9973L96.9941 14.9953L95.9973 15.9922H94.9973L94.9941 15.9953L93.9973 16.9922H92.9973H91.9973L91.9941 16.9953L90.9973 17.9922H89.9973H88.9973L88.9941 17.9953L87.9973 18.9922H86.9973L86.9941 18.9953L85.9973 19.9922H84.9973L84.9941 19.9953L83.9973 20.9922H82.9973H81.9973L81.9941 20.9953L80.9973 21.9922L80.9941 21.9953L79.9973 22.9922H78.9973L78.9941 22.9953L77.9973 23.9922H76.9973L76.9941 23.9953L75.9973 24.9922H74.9973L74.9941 24.9953L73.9973 25.9922H72.9973L72.9941 25.9953L71.9973 26.9922H70.9973L70.9941 26.9953L69.9973 27.9922L69.9941 27.9953L68.9973 28.9922H67.9973L67.9941 28.9953L66.9973 29.9922L66.9941 29.9953L65.9973 30.9922H64.9973L64.9941 30.9953L63.9973 31.9922L63.9941 31.9953L62.9973 32.9922H61.9973L61.9941 32.9953L60.9973 33.9922L60.9941 33.9953L59.9973 34.9922H58.9973L58.9941 34.9953L57.9973 35.9922L57.9941 35.9953L56.9973 36.9922L56.9941 36.9953L55.9973 37.9922L55.9941 37.9953L54.9973 38.9922H53.9973L53.9941 38.9953L52.9973 39.9922L52.9941 39.9953L51.9973 40.9922L51.9941 40.9953L50.9973 41.9922L50.9941 41.9953L49.9973 42.9922L49.9941 42.9953L48.9973 43.9922L48.9941 43.9953L47.9973 44.9922L47.9941 44.9953L46.9973 45.9922L46.9941 45.9953L45.9973 46.9922L45.9941 46.9953L44.9973 47.9922L44.9941 47.9953L43.9973 48.9922L43.9941 48.9953L42.9973 49.9922L42.9941 49.9953L41.9973 50.9922L41.9941 50.9953L40.9973 51.9922L40.9941 51.9953L39.9973 52.9922L39.9941 52.9953L38.9973 53.9922L38.9941 53.9953L37.9973 54.9922L37.9941 54.9953V55.9953L36.9973 56.9922L36.9941 56.9953L35.9973 57.9922L35.9941 57.9953L34.9973 58.9922L34.9941 58.9953L33.9973 59.9922L33.9941 59.9953V60.9953L32.9973 61.9922L32.9941 61.9953L31.9973 62.9922L31.9941 62.9953L30.9973 63.9922L30.9941 63.9953V64.9953L29.9973 65.9922L29.9941 65.9953L28.9973 66.9922L28.9941 66.9953V67.9953L27.9973 68.9922L27.9941 68.9953V69.9953L26.9973 70.9922L26.9941 70.9953L25.9973 71.9922L25.9941 71.9953V72.9953L24.9973 73.9922L24.9941 73.9953V74.9953L23.9973 75.9922L23.9941 75.9953V76.9953L22.9973 77.9922L22.9941 77.9953V78.9953L21.9973 79.9922L21.9941 79.9953V80.9953L20.9973 81.9922L20.9941 81.9953V82.9953L19.9973 83.9922L19.9941 83.9953V84.9953L18.9973 85.9922L18.9941 85.9953V86.9953L17.9973 87.9922L17.9941 87.9953V88.9953V89.9953L16.9973 90.9922L16.9941 90.9953V91.9953L15.9973 92.9922L15.9941 92.9953V93.9953V94.9953L14.9973 95.9922L14.9941 95.9953V96.9953V97.9953L13.9973 98.9922L13.9941 98.9953V99.9953V100.995V101.995L12.9973 102.992L12.9941 102.995V103.995V104.995V105.995L11.9973 106.992L11.9941 106.995V107.995V108.995V109.995L10.9973 110.992L10.9941 110.995V111.995V112.995V113.995V114.995L9.99728 115.992L9.99414 115.995V116.995V117.995V118.995V119.995V120.995L8.99728 121.992L8.99414 121.995V122.995V123.995V124.995V125.995V126.995V127.995V128.995V129.995V130.995V131.995V132.995L7.99728 133.992L7.99414 133.995V134.995V135.995V136.995V137.995V138.995L7.99728 138.998L8.99414 139.995V140.995V141.995V142.995V143.995V144.995V145.995V146.995V147.995V148.995V149.995V150.995V151.995V152.995L8.99728 152.998L9.99414 153.995V154.995V155.995V156.995V157.995V158.995V159.995L9.99728 159.998L10.9941 160.995V161.995V162.995V163.995V164.995L10.9973 164.998L11.9941 165.995V166.995V167.995V168.995V169.995L11.9973 169.998L12.9941 170.995V171.995V172.995V173.995L12.9973 173.998L13.9941 174.995V175.995V176.995L13.9973 176.998L14.9941 177.995V178.995V179.995L14.9973 179.998L15.9941 180.995V181.995V182.995L15.9973 182.998L16.9941 183.995V184.995V185.995L16.9973 185.998L17.9941 186.995V187.995L17.9973 187.998L18.9941 188.995V189.995V190.995L18.9973 190.998L19.9941 191.995V192.995L19.9973 192.998L20.9941 193.995V194.995L20.9973 194.998L21.9941 195.995V196.995L21.9973 196.998L22.9941 197.995V198.995L22.9973 198.998L23.9941 199.995V200.995L23.9973 200.998L24.9941 201.995V202.995L24.9973 202.998L25.9941 203.995L25.9973 203.998L26.9941 204.995V205.995L26.9973 205.998L27.9941 206.995V207.995L27.9973 207.998L28.9941 208.995L28.9973 208.998L29.9941 209.995V210.995L29.9973 210.998L30.9941 211.995L30.9973 211.998L31.9941 212.995V213.995L31.9973 213.998L32.9941 214.995L32.9973 214.998L33.9941 215.995L33.9973 215.998L34.9941 216.995V217.995L34.9973 217.998L35.9941 218.995L35.9973 218.998L36.9941 219.995L36.9973 219.998L37.9941 220.995L37.9973 220.998L38.9941 221.995L38.9973 221.998L39.9941 222.995V223.995L39.9973 223.998L40.9941 224.995L40.9973 224.998L41.9941 225.995L41.9973 225.998L42.9941 226.995L42.9973 226.998L43.9941 227.995L43.9973 227.998L44.9941 228.995L44.9973 228.998L45.9941 229.995L45.9973 229.998L46.9941 230.995L46.9973 230.998L47.9941 231.995L47.9973 231.998L48.9941 232.995L48.9973 232.998L49.9941 233.995L49.9973 233.998L50.9941 234.995L50.9973 234.998L51.9941 235.995L51.9973 235.998H52.9973L53.9941 236.995L53.9973 236.998L54.9941 237.995L54.9973 237.998L55.9941 238.995L55.9973 238.998L56.9941 239.995L56.9973 239.998H57.9973L58.9941 240.995L58.9973 240.998L59.9941 241.995L59.9973 241.998L60.9941 242.995L60.9973 242.998H61.9973L62.9941 243.995L62.9973 243.998L63.9941 244.995L63.9973 244.998L64.9941 245.995L64.9973 245.998H65.9973L66.9941 246.995L66.9973 246.998L67.9941 247.995L67.9973 247.998H68.9973L69.9941 248.995L69.9973 248.998H70.9973L71.9941 249.995L71.9973 249.998L72.9941 250.995L72.9973 250.998H73.9973L74.9941 251.995L74.9973 251.998H75.9973L76.9941 252.995L76.9973 252.998H77.9973L78.9941 253.995L78.9973 253.998H79.9973L80.9941 254.995L80.9973 254.998H81.9973L82.9941 255.995L82.9973 255.998H83.9973L84.9941 256.995L84.9973 256.998H85.9973L86.9941 257.995L86.9973 257.998H87.9973H88.9973L89.9941 258.995L89.9973 258.998H90.9973L91.9941 259.995L91.9973 259.998H92.9973H93.9973L94.9941 260.995L94.9973 260.998H95.9973H96.9973L97.9941 261.995L97.9973 261.998H98.9973H99.9973L100.994 262.995L100.997 262.998H101.997H102.997L103.994 263.995L103.997 263.998H104.997H105.997H106.997L107.994 264.995L107.997 264.998H108.997H109.997H110.997L111.994 265.995L111.997 265.998H112.997H113.997H114.997H115.997L116.994 266.995L116.997 266.998H117.997H118.997H119.997H120.997H121.997L122.994 267.995L122.997 267.998H123.997H124.997H125.997H126.997H127.997H128.997H129.997H130.997H131.997L132.994 268.995L132.997 268.998H133.997H134.997H135.997H136.997H137.997H138.997H139.997H140.997H141.997H142.997H143.997H144.997H145.997L146 268.995Z" fill="white" stroke="#426C98"/>
<path d="M118.997 238.994H117.997H116.997H115.997H114.997L114 237.997L113.997 237.994H112.997L112 236.997L111.997 236.994H110.997L110 235.997L109.997 235.994H108.997L108 234.997L107.997 234.994L107 233.997L106.997 233.994H105.997L105 232.997L104.997 232.994L104 231.997L103.997 231.994H102.997L102.994 231.997L101.997 232.994H100.997L100.994 232.997L99.9969 233.994L99.9937 233.997L98.9969 234.994H97.9969L97.9937 234.997L96.9969 235.994H95.9969L95.9937 235.997L94.9969 236.994L94.9937 236.997L93.9969 237.994H92.9969L92.9937 237.997L91.9969 238.994H90.9969H89.9969H88.9969H87.9969H86.9969L86 237.997L85.9969 237.994L85 236.997V235.997V234.997V233.997V232.997V231.997V230.997V229.997V228.997V227.997V226.997V225.997V224.997V223.997V222.997V221.997V220.997V219.997L84.9969 219.994H83.9969H82.9969H81.9969H80.9969H79.9969H78.9969H77.9969H76.9969H75.9969H74.9969L74 218.997L73.9969 218.994H72.9969H71.9969L71 217.997L70.9969 217.994H69.9969L69 216.997L68.9969 216.994H67.9969L67 215.997L66.9969 215.994L66 214.997L65.9969 214.994L65 213.997L64.9969 213.994L64 212.997L63.9969 212.994L63 211.997L62.9969 211.994L62 210.997V209.997L61.9969 209.994L61 208.997V207.997L60.9969 207.994L60 206.997V205.997V204.997V203.997V202.997L59.9969 202.994L59 201.997V200.997V199.997V198.997V197.997V196.997V195.997V194.997V193.997V192.997V191.997V190.997V189.997V188.997V187.997V186.997V185.997V184.997V183.997V182.997V181.997V180.997V179.997V178.997V177.997V176.997V175.997V174.997V173.997V172.997V171.997V170.997V169.997V168.997V167.997V166.997V165.997V164.997V163.997V162.997V161.997V160.997V159.997V158.997V157.997V156.997V155.997V154.997V153.997V152.997V151.997V150.997V149.997V148.997V147.997V146.997V145.997V144.997V143.997V142.997V141.997V140.997V139.997V138.997V137.997V136.997V135.997V134.997V133.997V132.997V131.997V130.997V129.997V128.997V127.997V126.997V125.997V124.997V123.997V122.997V121.997V120.997V119.997V118.997V117.997V116.997V115.997V114.997V113.997V112.997V111.997V110.997V109.997V108.997V107.997V106.997V105.997V104.997V103.997V102.997V101.997V100.997V99.9969V98.9969V97.9969V96.9969V95.9969V94.9969V93.9969V92.9969V91.9969V90.9969V89.9969V88.9969V87.9969V86.9969V85.9969V84.9969V83.9969V82.9969V81.9969V80.9969V79.9969V78.9969V77.9969V76.9969V75.9969V74.9969V73.9969V72.9969V71.9969V70.9969V69.9969V68.9969V67.9969V66.9969V65.9969V64.9969V63.9969V62.9969V61.9969V60.9969V59.9969V58.9969L59.9969 58L60 57.9969V56.9969V55.9969L60.9969 55L61 54.9969V53.9969L61.9969 53L62 52.9969L62.9969 52L63 51.9969L63.9969 51L64 50.9969L64.9969 50L65 49.9969L65.9969 49L66 48.9969L66.9969 48L67 47.9969L67.9969 47L68 46.9969L68.9969 46H69.9969L70 45.9969L70.9969 45H71.9969L72 44.9969L72.9969 44H73.9969L74 43.9969L74.9969 43H75.9969H76.9969H77.9969L78 42.9969L78.9969 42H79.9969H80.9969H81.9969H82.9969H83.9969H84.9969H85.9969H86.9969H87.9969H88.9969H89.9969H90.9969H91.9969H92.9969H93.9969H94.9969H95.9969H96.9969H97.9969H98.9969H99.9969H100.997H101.997H102.997H103.997H104.997H105.997H106.997H107.997H108.997H109.997H110.997H111.997H112.997H113.997H114.997H115.997H116.997H117.997H118.997H119.997H120.997H121.997H122.997H123.997H124.997H125.997H126.997H127.997H128.997H129.997H130.997H131.997H132.997H133.997H134.997H135.997H136.997H137.997H138.997H139.997H140.997H141.997H142.997H143.997H144.997H145.997H146.997H147.997H148.997H149.997H150.997H151.997H152.997H153.997H154.997H155.997H156.997H157.997H158.997H159.997H160.997H161.997H162.997H163.997H164.997H165.997H166.997H167.997H168.997H169.997H170.997H171.997H172.997H173.997H174.997H175.997H176.997H177.997H178.997H179.997H180.997H181.997H182.997H183.997H184.997H185.997H186.997H187.997H188.997H189.997H190.997H191.997H192.997H193.997H194.997L195.994 42.9969L195.997 43H196.997H197.997H198.997L199.994 43.9969L199.997 44H200.997L201.994 44.9969L201.997 45H202.997L203.994 45.9969L203.997 46H204.997L205.994 46.9969L205.997 47L206.994 47.9969L206.997 48L207.994 48.9969L207.997 49L208.994 49.9969L208.997 50L209.994 50.9969L209.997 51L210.994 51.9969V52.9969L210.997 53L211.994 53.9969L211.997 54L212.994 54.9969V55.9969V56.9969L212.997 57L213.994 57.9969V58.9969V59.9969L213.997 60L214.994 60.9969V61.9969V62.9969V63.9969V64.9969V65.9969V66.9969V67.9969V68.9969V69.9969V70.9969V71.9969V72.9969V73.9969V74.9969V75.9969V76.9969V77.9969V78.9969V79.9969V80.9969V81.9969V82.9969V83.9969V84.9969V85.9969V86.9969V87.9969V88.9969V89.9969V90.9969V91.9969V92.9969V93.9969V94.9969V95.9969V96.9969V97.9969V98.9969V99.9969V100.997V101.997V102.997V103.997V104.997V105.997V106.997V107.997V108.997V109.997V110.997V111.997V112.997V113.997V114.997V115.997V116.997V117.997V118.997V119.997V120.997V121.997V122.997V123.997V124.997V125.997V126.997V127.997V128.997V129.997V130.997V131.997V132.997V133.997V134.997V135.997V136.997V137.997V138.997V139.997V140.997V141.997V142.997V143.997V144.997V145.997V146.997V147.997V148.997V149.997V150.997V151.997V152.997V153.997V154.997V155.997V156.997V157.997V158.997V159.997V160.997V161.997V162.997V163.997V164.997V165.997V166.997V167.997V168.997V169.997V170.997V171.997V172.997V173.997V174.997V175.997V176.997V177.997V178.997V179.997V180.997V181.997V182.997V183.997V184.997V185.997V186.997V187.997V188.997V189.997V190.997V191.997V192.997V193.997V194.997V195.997V196.997V197.997V198.997V199.997V200.997V201.997V202.997L213.997 203.994L213.994 203.997V204.997V205.997L212.997 206.994L212.994 206.997V207.997L211.997 208.994L211.994 208.997L210.997 209.994L210.994 209.997V210.997L209.997 211.994L209.994 211.997L208.997 212.994L208.994 212.997L207.997 213.994L207.994 213.997L206.997 214.994L206.994 214.997L205.997 215.994H204.997L204.994 215.997L203.997 216.994H202.997L202.994 216.997L201.997 217.994H200.997L200.994 217.997L199.997 218.994H198.997H197.997L197.994 218.997L196.997 219.994H195.997H194.997H193.997H192.997H191.997H190.997H189.997H188.997H187.997H186.997H185.997H184.997H183.997H182.997H181.997H180.997H179.997H178.997H177.997H176.997H175.997H174.997H173.997H172.997H171.997H170.997H169.997H168.997H167.997H166.997H165.997H164.997H163.997H162.997H161.997H160.997H159.997H158.997H157.997H156.997H155.997H154.997H153.997H152.997H151.997H150.997H149.997H148.997H147.997H146.997H145.997H144.997H143.997H142.997H141.997H140.997H139.997H138.997H137.997H136.997H135.997H134.997H133.997H132.997H131.997H130.997H129.997H128.997H127.997H126.997H125.997H124.997H123.997H122.997H121.997H120.997L120.994 219.997V220.997V221.997V222.997V223.997V224.997V225.997V226.997V227.997V228.997V229.997V230.997V231.997V232.997V233.997V234.997V235.997V236.997L119.997 237.994L119.994 237.997L118.997 238.994Z" fill="#426C98"/>
<path d="M207 176.995V175.995V174.995V173.995V172.995V171.995V170.995V169.995V168.995V167.995V166.995V165.995V164.995V163.995V162.995V161.995V160.995V159.995V158.995V157.995V156.995V155.995V154.995V153.995V152.995V151.995V150.995V149.995V148.995V147.995V146.995V145.995V144.995V143.995V142.995V141.995V140.995V139.995V138.995V137.995V136.995V135.995V134.995V133.995V132.995V131.995V130.995V129.995V128.995V127.995V126.995V125.995V124.995V123.995V122.995V121.995V120.995V119.995V118.995V117.995V116.995V115.995V114.995V113.995V112.995V111.995V110.995V109.995V108.995V107.995V106.995V105.995V104.995V103.995V102.995V101.995V100.995V99.9953V98.9953V97.9953V96.9953V95.9953V94.9953V93.9953V92.9953V91.9953V90.9953V89.9953V88.9953V87.9953V86.9953V85.9953V84.9953V83.9953V82.9953V81.9953V80.9953V79.9953V78.9953V77.9953V76.9953V75.9953V74.9953V73.9953V72.9953V71.9953V70.9953V69.9953V68.9953V67.9953V66.9953V65.9953V64.9953V63.9953L206.997 63.9922L206 62.9953V61.9953V60.9953V59.9953L205.997 59.9922L205 58.9953V57.9953L204.997 57.9922L204 56.9953V55.9953L203.997 55.9922L203 54.9953L202.997 54.9922L202 53.9953L201.997 53.9922L201 52.9953L200.997 52.9922H199.997L199 51.9953L198.997 51.9922L198 50.9953L197.997 50.9922H196.997H195.997L195 49.9953L194.997 49.9922H193.997H192.997H191.997H190.997H189.997H188.997H187.997H186.997H185.997H184.997H183.997H182.997H181.997H180.997H179.997H178.997H177.997H176.997H175.997H174.997H173.997H172.997H171.997H170.997H169.997H168.997H167.997H166.997H165.997H164.997H163.997H162.997H161.997H160.997H159.997H158.997H157.997H156.997H155.997H154.997H153.997H152.997H151.997H150.997H149.997H148.997H147.997H146.997H145.997H144.997H143.997H142.997H141.997H140.997H139.997H138.997H137.997H136.997H135.997H134.997H133.997H132.997H131.997H130.997H129.997H128.997H127.997H126.997H125.997H124.997H123.997H122.997H121.997H120.997H119.997H118.997H117.997H116.997H115.997H114.997H113.997H112.997H111.997H110.997H109.997H108.997H107.997H106.997H105.997H104.997H103.997H102.997H101.997H100.997H99.9973H98.9973H97.9973H96.9973H95.9973H94.9973H93.9973H92.9973H91.9973H90.9973H89.9973H88.9973H87.9973H86.9973L86.9941 49.9953V50.9953V51.9953V52.9953V53.9953V54.9953V55.9953V56.9953V57.9953V58.9953V59.9953V60.9953V61.9953V62.9953V63.9953V64.9953V65.9953V66.9953V67.9953V68.9953V69.9953V70.9953V71.9953V72.9953V73.9953V74.9953V75.9953V76.9953V77.9953V78.9953V79.9953V80.9953V81.9953V82.9953V83.9953V84.9953V85.9953V86.9953V87.9953V88.9953V89.9953V90.9953V91.9953V92.9953V93.9953V94.9953V95.9953V96.9953V97.9953V98.9953V99.9953V100.995V101.995V102.995V103.995V104.995V105.995V106.995V107.995V108.995V109.995V110.995V111.995V112.995V113.995V114.995V115.995V116.995V117.995V118.995V119.995V120.995V121.995V122.995V123.995V124.995V125.995V126.995V127.995V128.995V129.995V130.995V131.995V132.995V133.995V134.995V135.995V136.995V137.995V138.995V139.995V140.995V141.995V142.995V143.995V144.995V145.995V146.995V147.995V148.995V149.995V150.995V151.995V152.995V153.995V154.995V155.995V156.995V157.995V158.995V159.995V160.995V161.995V162.995V163.995V164.995V165.995V166.995V167.995V168.995V169.995V170.995V171.995V172.995V173.995V174.995V175.995V176.995L86.9973 176.998H87.9973H88.9973H89.9973H90.9973H91.9973H92.9973H93.9973H94.9973H95.9973H96.9973H97.9973H98.9973H99.9973H100.997H101.997H102.997H103.997H104.997H105.997H106.997H107.997H108.997H109.997H110.997H111.997H112.997H113.997H114.997H115.997H116.997H117.997H118.997H119.997H120.997H121.997H122.997H123.997H124.997H125.997H126.997H127.997H128.997H129.997H130.997H131.997H132.997H133.997H134.997H135.997H136.997H137.997H138.997H139.997H140.997H141.997H142.997H143.997H144.997H145.997H146.997H147.997H148.997H149.997H150.997H151.997H152.997H153.997H154.997H155.997H156.997H157.997H158.997H159.997H160.997H161.997H162.997H163.997H164.997H165.997H166.997H167.997H168.997H169.997H170.997H171.997H172.997H173.997H174.997H175.997H176.997H177.997H178.997H179.997H180.997H181.997H182.997H183.997H184.997H185.997H186.997H187.997H188.997H189.997H190.997H191.997H192.997H193.997H194.997H195.997H196.997H197.997H198.997H199.997H200.997H201.997H202.997H203.997H204.997H205.997H206.997L207 176.995Z" stroke="#426C98"/>
<path d="M68.0004 180.995L68.9973 179.998L69.0004 179.995L69.9973 178.998H70.9973L71.0004 178.995L71.9973 177.998H72.9973H73.9973L74.0004 177.995L74.9973 176.998H75.9973H76.9973H77.9973H78.9973L79.0004 176.995V175.995V174.995V173.995V172.995V171.995V170.995V169.995V168.995V167.995V166.995V165.995V164.995V163.995V162.995V161.995V160.995V159.995V158.995V157.995V156.995V155.995V154.995V153.995V152.995V151.995V150.995V149.995V148.995V147.995V146.995V145.995V144.995V143.995V142.995V141.995V140.995V139.995V138.995V137.995V136.995V135.995V134.995V133.995V132.995V131.995V130.995V129.995V128.995V127.995V126.995V125.995V124.995V123.995V122.995V121.995V120.995V119.995V118.995V117.995V116.995V115.995V114.995V113.995V112.995V111.995V110.995V109.995V108.995V107.995V106.995V105.995V104.995V103.995V102.995V101.995V100.995V99.9953V98.9953V97.9953V96.9953V95.9953V94.9953V93.9953V92.9953V91.9953V90.9953V89.9953V88.9953V87.9953V86.9953V85.9953V84.9953V83.9953V82.9953V81.9953V80.9953V79.9953V78.9953V77.9953V76.9953V75.9953V74.9953V73.9953V72.9953V71.9953V70.9953V69.9953V68.9953V67.9953V66.9953V65.9953V64.9953V63.9953V62.9953V61.9953V60.9953V59.9953V58.9953V57.9953V56.9953V55.9953V54.9953V53.9953V52.9953V51.9953V50.9953L78.9973 50.9922H77.9973H76.9973L76.9941 50.9953L75.9973 51.9922H74.9973L74.9941 51.9953L73.9973 52.9922H72.9973L72.9941 52.9953L71.9973 53.9922L71.9941 53.9953L70.9973 54.9922L70.9941 54.9953L69.9973 55.9922L69.9941 55.9953V56.9953L68.9973 57.9922L68.9941 57.9953L67.9973 58.9922L67.9941 58.9953V59.9953V60.9953V61.9953L66.9973 62.9922L66.9941 62.9953V63.9953V64.9953V65.9953V66.9953V67.9953V68.9953V69.9953V70.9953V71.9953V72.9953V73.9953V74.9953V75.9953V76.9953V77.9953V78.9953V79.9953V80.9953V81.9953V82.9953V83.9953V84.9953V85.9953V86.9953V87.9953V88.9953V89.9953V90.9953V91.9953V92.9953V93.9953V94.9953V95.9953V96.9953V97.9953V98.9953V99.9953V100.995V101.995V102.995V103.995V104.995V105.995V106.995V107.995V108.995V109.995V110.995V111.995V112.995V113.995V114.995V115.995V116.995V117.995V118.995V119.995V120.995V121.995V122.995V123.995V124.995V125.995V126.995V127.995V128.995V129.995V130.995V131.995V132.995V133.995V134.995V135.995V136.995V137.995V138.995V139.995V140.995V141.995V142.995V143.995V144.995V145.995V146.995V147.995V148.995V149.995V150.995V151.995V152.995V153.995V154.995V155.995V156.995V157.995V158.995V159.995V160.995V161.995V162.995V163.995V164.995V165.995V166.995V167.995V168.995V169.995V170.995V171.995V172.995V173.995V174.995V175.995V176.995V177.995V178.995V179.995V180.995L66.9973 180.998H67.9973L68.0004 180.995Z" fill="white"/>
<path d="M153.997 156.994H152.997H151.997H150.997H149.997H148.997H147.997H146.997H145.997H144.997H143.997H142.997H141.997H140.997H139.997L139 155.997L138.997 155.994H137.997H136.997H135.997L135 154.997L134.997 154.994H133.997H132.997L132 153.997L131.997 153.994H130.997H129.997L129 152.997L128.997 152.994L128 151.997L127.997 151.994H126.997L126 150.997L125.997 150.994H124.997L124 149.997L123.997 149.994L123 148.997L122.997 148.994H121.997L121 147.997L120.997 147.994L120 146.997L119.997 146.994L119 145.997L118.997 145.994L118 144.997L117.997 144.994L117 143.997L116.997 143.994L116 142.997L115.997 142.994L115 141.997L114.997 141.994L114 140.997V139.997L113.997 139.994L113 138.997L112.997 138.994L112 137.997V136.997L111.997 136.994L111 135.997V134.997L110.997 134.994L110 133.997V132.997L109.997 132.994L109 131.997V130.997L108.997 130.994L108 129.997V128.997V127.997L107.997 127.994L107 126.997V125.997V124.997V123.997L106.997 123.994L106 122.997V121.997V120.997V119.997V118.997V117.997V116.997V115.997V114.997V113.997V112.997V111.997V110.997V109.997V108.997V107.997L106.997 107L107 106.997V105.997V104.997V103.997V102.997L107.997 102L108 101.997V100.997V99.9969L108.997 99L109 98.9969V97.9969L109.997 97L110 96.9969V95.9969L110.997 95L111 94.9969V93.9969L111.997 93L112 92.9969V91.9969L112.997 91L113 90.9969L113.997 90L114 89.9969V88.9969L114.997 88L115 87.9969L115.997 87L116 86.9969L116.997 86L117 85.9969L117.997 85L118 84.9969L118.997 84L119 83.9969L119.997 83L120 82.9969L120.997 82L121 81.9969L121.997 81H122.997L123 80.9969L123.997 80L124 79.9969L124.997 79H125.997L126 78.9969L126.997 78H127.997L128 77.9969L128.997 77H129.997L130 76.9969L130.997 76H131.997L132 75.9969L132.997 75H133.997H134.997L135 74.9969L135.997 74H136.997H137.997H138.997L139 73.9969L139.997 73H140.997H141.997H142.997H143.997H144.997H145.997H146.997H147.997H148.997H149.997H150.997H151.997H152.997H153.997H154.997H155.997L156.994 73.9969L156.997 74H157.997H158.997H159.997L160.994 74.9969L160.997 75H161.997L162.994 75.9969L162.997 76H163.997H164.997L165.994 76.9969L165.997 77H166.997L167.994 77.9969L167.997 78L168.994 78.9969L168.997 79H169.997L170.994 79.9969L170.997 80L171.994 80.9969L171.997 81H172.997L173.994 81.9969L173.997 82L174.994 82.9969L174.997 83L175.994 83.9969L175.997 84L176.994 84.9969L176.997 85L177.994 85.9969L177.997 86L178.994 86.9969L178.997 87L179.994 87.9969V88.9969L179.997 89L180.994 89.9969L180.997 90L181.994 90.9969L181.997 91L182.994 91.9969V92.9969L182.997 93L183.994 93.9969V94.9969L183.997 95L184.994 95.9969L184.997 96L185.994 96.9969V97.9969V98.9969L185.997 99L186.994 99.9969V100.997L186.997 101L187.994 101.997V102.997V103.997V104.997L187.997 105L188.994 105.997V106.997V107.997V108.997V109.997V110.997V111.997V112.997L188.997 113L189.994 113.997V114.997V115.997V116.997L188.997 117.994L188.994 117.997V118.997V119.997V120.997V121.997V122.997L187.997 123.994L187.994 123.997V124.997V125.997V126.997L186.997 127.994L186.994 127.997V128.997V129.997L185.997 130.994L185.994 130.997V131.997L184.997 132.994L184.994 132.997V133.997L183.997 134.994L183.994 134.997V135.997L182.997 136.994L182.994 136.997L181.997 137.994L181.994 137.997V138.997L180.997 139.994L180.994 139.997L179.997 140.994L179.994 140.997L178.997 141.994L178.994 141.997L177.997 142.994L177.994 142.997V143.997L176.997 144.994L176.994 144.997L175.997 145.994H174.997L174.994 145.997L173.997 146.994L173.994 146.997L172.997 147.994L172.994 147.997L171.997 148.994L171.994 148.997L170.997 149.994H169.997L169.994 149.997L168.997 150.994L168.994 150.997L167.997 151.994H166.997L166.994 151.997L165.997 152.994H164.997L164.994 152.997L163.997 153.994H162.997L162.994 153.997L161.997 154.994H160.997H159.997H158.997L158.994 154.997L157.997 155.994H156.997H155.997H154.997L154.994 155.997L153.997 156.994Z" fill="white" stroke="#426C98"/>
<path d="M152 148.995L152.997 147.998H153.997H154.997H155.997H156.997L157 147.995L157.997 146.998H158.997L159 146.995L159.997 145.998H160.997H161.997L162 145.995L162.997 144.998H163.997L164 144.995L164.997 143.998L165 143.995L165.997 142.998H166.997L167 142.995L167.997 141.998L168 141.995L168.997 140.998L169 140.995L169.997 139.998L170 139.995L170.997 138.998H171.997L172 138.995L172.997 137.998L173 137.995V136.995L173.997 135.998L174 135.995L174.997 134.998L175 134.995L175.997 133.998L176 133.995V132.995L176.997 131.998L177 131.995V130.995L177.997 129.998L178 129.995V128.995L178.997 127.998L179 127.995V126.995L179.997 125.998L180 125.995V124.995V123.995V122.995L180.997 121.998L181 121.995V120.995V119.995V118.995V117.995V116.995V115.995V114.995V113.995V112.995V111.995V110.995V109.995V108.995V107.995V106.995L180.997 106.992L180 105.995V104.995V103.995L179.997 103.992L179 102.995V101.995V100.995L178.997 100.992L178 99.9953V98.9953L177.997 98.9922L177 97.9953L176.997 97.9922L176 96.9953V95.9953L175.997 95.9922L175 94.9953L174.997 94.9922L174 93.9953V92.9953L173.997 92.9922L173 91.9953L172.997 91.9922L172 90.9953L171.997 90.9922L171 89.9953L170.997 89.9922L170 88.9953L169.997 88.9922L169 87.9953L168.997 87.9922H167.997L167 86.9953L166.997 86.9922L166 85.9953L165.997 85.9922H164.997L164 84.9953L163.997 84.9922L163 83.9953L162.997 83.9922H161.997L161 82.9953L160.997 82.9922H159.997H158.997L158 81.9953L157.997 81.9922H156.997H155.997H154.997L154 80.9953L153.997 80.9922H152.997H151.997H150.997H149.997H148.997H147.997H146.997H145.997H144.997H143.997H142.997H141.997H140.997L140.994 80.9953L139.997 81.9922H138.997H137.997H136.997L136.994 81.9953L135.997 82.9922H134.997H133.997L133.994 82.9953L132.997 83.9922H131.997L131.994 83.9953L130.997 84.9922L130.994 84.9953L129.997 85.9922H128.997L128.994 85.9953L127.997 86.9922L127.994 86.9953L126.997 87.9922H125.997L125.994 87.9953L124.997 88.9922L124.994 88.9953L123.997 89.9922L123.994 89.9953L122.997 90.9922L122.994 90.9953L121.997 91.9922L121.994 91.9953L120.997 92.9922L120.994 92.9953V93.9953L119.997 94.9922L119.994 94.9953L118.997 95.9922L118.994 95.9953V96.9953L117.997 97.9922L117.994 97.9953V98.9953L116.997 99.9922L116.994 99.9953V100.995L115.997 101.992L115.994 101.995V102.995L114.997 103.992L114.994 103.995V104.995V105.995V106.995L113.997 107.992L113.994 107.995V108.995V109.995V110.995V111.995V112.995V113.995V114.995V115.995V116.995V117.995V118.995V119.995V120.995V121.995L113.997 121.998L114.994 122.995V123.995V124.995V125.995L114.997 125.998L115.994 126.995V127.995L115.997 127.998L116.994 128.995V129.995V130.995L116.997 130.998L117.994 131.995L117.997 131.998L118.994 132.995V133.995L118.997 133.998L119.994 134.995L119.997 134.998L120.994 135.995V136.995L120.997 136.998L121.994 137.995L121.997 137.998L122.994 138.995L122.997 138.998L123.994 139.995L123.997 139.998L124.994 140.995L124.997 140.998L125.994 141.995L125.997 141.998H126.997L127.994 142.995L127.997 142.998L128.994 143.995L128.997 143.998H129.997L130.994 144.995L130.997 144.998H131.997L132.994 145.995L132.997 145.998H133.997L134.994 146.995L134.997 146.998H135.997H136.997L137.994 147.995L137.997 147.998H138.997H139.997H140.997L141.994 148.995L141.997 148.998H142.997H143.997H144.997H145.997H146.997H147.997H148.997H149.997H150.997H151.997L152 148.995Z" fill="#426C98"/>
<path d="M147.997 118.994H146.997H145.997H144.997H143.997H142.997H141.997H140.997H139.997H138.997H137.997H136.997H135.997H134.997H133.997H132.997H131.997L131 117.997L130.997 117.994L130 116.997L129.997 116.994L129 115.997V114.997V113.997L129.997 113L130 112.997L130.997 112L131 111.997L131.997 111H132.997H133.997H134.997H135.997H136.997H137.997H138.997H139.997H140.997H141.997H142.997L143 110.997V109.997V108.997V107.997V106.997V105.997V104.997V103.997V102.997V101.997V100.997V99.9969V98.9969V97.9969V96.9969V95.9969V94.9969V93.9969V92.9969V91.9969V90.9969V89.9969V88.9969L143.997 88H144.997L145 87.9969L145.997 87H146.997L147.994 87.9969L147.997 88H148.997L149.994 88.9969V89.9969L149.997 90L150.994 90.9969V91.9969V92.9969V93.9969V94.9969V95.9969V96.9969V97.9969V98.9969V99.9969V100.997V101.997V102.997V103.997V104.997V105.997V106.997V107.997V108.997V109.997V110.997V111.997V112.997V113.997V114.997V115.997L149.997 116.994L149.994 116.997L148.997 117.994L148.994 117.997L147.997 118.994Z" fill="white" stroke="#426C98"/>
<path d="M194 211.995L194.997 210.998H195.997H196.997H197.997H198.997L199 210.995L199.997 209.998H200.997L201 209.995L201.997 208.998L202 208.995L202.997 207.998L203 207.995L203.997 206.998L204 206.995L204.997 205.998L205 205.995V204.995L205.997 203.998L206 203.995V202.995V201.995L206.997 200.998L207 200.995V199.995V198.995V197.995V196.995V195.995V194.995V193.995V192.995V191.995V190.995V189.995V188.995V187.995V186.995V185.995V184.995L206.997 184.992H205.997H204.997H203.997H202.997H201.997H200.997H199.997H198.997H197.997H196.997H195.997H194.997H193.997H192.997H191.997H190.997H189.997H188.997H187.997H186.997H185.997H184.997H183.997H182.997H181.997H180.997H179.997H178.997H177.997H176.997H175.997H174.997H173.997H172.997H171.997H170.997H169.997H168.997H167.997H166.997H165.997H164.997H163.997H162.997H161.997H160.997H159.997H158.997H157.997H156.997H155.997H154.997H153.997H152.997H151.997H150.997H149.997H148.997H147.997H146.997H145.997H144.997H143.997H142.997H141.997H140.997H139.997H138.997H137.997H136.997H135.997H134.997H133.997H132.997H131.997H130.997H129.997H128.997H127.997H126.997H125.997H124.997H123.997H122.997H121.997H120.997H119.997H118.997H117.997H116.997H115.997H114.997H113.997H112.997H111.997H110.997H109.997H108.997H107.997H106.997H105.997H104.997H103.997H102.997H101.997H100.997H99.9973H98.9973H97.9973H96.9973H95.9973H94.9973H93.9973H92.9973H91.9973H90.9973H89.9973H88.9973H87.9973H86.9973H85.9973H84.9973H83.9973H82.9973H81.9973H80.9973H79.9973H78.9973L78.9941 184.995L77.9973 185.992H76.9973H75.9973H74.9973L74.9941 185.995L73.9973 186.992H72.9973L72.9941 186.995L71.9973 187.992H70.9973L70.9941 187.995L69.9973 188.992L69.9941 188.995L68.9973 189.992L68.9941 189.995V190.995L67.9973 191.992L67.9941 191.995V192.995L66.9973 193.992L66.9941 193.995V194.995L65.9973 195.992L65.9941 195.995V196.995V197.995V198.995L65.9973 198.998L66.9941 199.995V200.995V201.995V202.995L66.9973 202.998L67.9941 203.995V204.995L67.9973 204.998L68.9941 205.995V206.995L68.9973 206.998L69.9941 207.995L69.9973 207.998L70.9941 208.995L70.9973 208.998L71.9941 209.995L71.9973 209.998H72.9973L73.9941 210.995L73.9973 210.998H74.9973L75.9941 211.995L75.9973 211.998H76.9973H77.9973H78.9973H79.9973H80.9973H81.9973H82.9973H83.9973H84.9973L85.0004 211.995V210.995V209.995V208.995V207.995V206.995V205.995V204.995V203.995V202.995L84.9973 202.992H83.9973H82.9973H81.9973L81.0004 201.995L80.9973 201.992L80.0004 200.995L79.9973 200.992L79.0004 199.995V198.995V197.995V196.995L79.9973 195.998L80.0004 195.995L80.9973 194.998H81.9973H82.9973H83.9973H84.9973H85.9973H86.9973H87.9973H88.9973H89.9973H90.9973H91.9973H92.9973H93.9973H94.9973H95.9973H96.9973H97.9973H98.9973H99.9973H100.997H101.997H102.997H103.997H104.997H105.997H106.997H107.997H108.997H109.997H110.997H111.997H112.997H113.997H114.997H115.997H116.997H117.997L118.994 195.995L118.997 195.998L119.994 196.995L119.997 196.998L120.994 197.995V198.995V199.995V200.995V201.995V202.995V203.995V204.995V205.995V206.995V207.995V208.995V209.995V210.995L120.997 210.998L121.994 211.995L121.997 211.998H122.997H123.997H124.997H125.997H126.997H127.997H128.997H129.997H130.997H131.997H132.997H133.997H134.997H135.997H136.997H137.997H138.997H139.997H140.997H141.997H142.997H143.997H144.997H145.997H146.997H147.997H148.997H149.997H150.997H151.997H152.997H153.997H154.997H155.997H156.997H157.997H158.997H159.997H160.997H161.997H162.997H163.997H164.997H165.997H166.997H167.997H168.997H169.997H170.997H171.997H172.997H173.997H174.997H175.997H176.997H177.997H178.997H179.997H180.997H181.997H182.997H183.997H184.997H185.997H186.997H187.997H188.997H189.997H190.997H191.997H192.997H193.997L194 211.995Z" fill="white"/>
<path d="M113 228.995V227.995V226.995V225.995V224.995V223.995V222.995V221.995V220.995V219.995V218.995V217.995V216.995V215.995V214.995V213.995V212.995V211.995V210.995V209.995V208.995V207.995V206.995V205.995V204.995V203.995V202.995L112.997 202.992H111.997H110.997H109.997H108.997H107.997H106.997H105.997H104.997H103.997H102.997H101.997H100.997H99.9973H98.9973H97.9973H96.9973H95.9973H94.9973H93.9973H92.9973H91.9973L91.9941 202.995L91.9973 202.998L92.9941 203.995V204.995V205.995V206.995V207.995V208.995V209.995V210.995V211.995V212.995V213.995V214.995V215.995V216.995V217.995V218.995V219.995V220.995V221.995V222.995V223.995V224.995V225.995V226.995V227.995V228.995L92.9973 228.998L93.0004 228.995L93.9973 227.998H94.9973L95.0004 227.995L95.9973 226.998H96.9973L97.0004 226.995L97.9973 225.998L98.0004 225.995L98.9973 224.998H99.9973L100 224.995L100.997 223.998H101.997H102.997H103.997H104.997L105.994 224.995L105.997 224.998H106.997L107.994 225.995L107.997 225.998H108.997L109.994 226.995L109.997 226.998H110.997L111.994 227.995L111.997 227.998L112.994 228.995L112.997 228.998L113 228.995Z" stroke="#426C98"/>
</svg>
