<svg width="112" height="51" viewBox="0 0 112 51" fill="none" xmlns="http://www.w3.org/2000/svg">
<path d="M14.6365 41.6142C13.2801 41.6142 12.0133 41.3967 10.8361 40.9616C9.68444 40.5265 8.67354 39.8995 7.80341 39.0806L6.92048 41H2.77454V12.7846H8.80151V22.4968C10.4906 21.3708 12.4484 20.8078 14.6749 20.8078C16.5943 20.8078 18.309 21.2428 19.8189 22.113C21.3545 22.9831 22.5445 24.2115 23.3891 25.7982C24.2592 27.3849 24.6943 29.1892 24.6943 31.211C24.6943 33.2328 24.2592 35.037 23.3891 36.6237C22.5445 38.2105 21.3545 39.4389 19.8189 40.309C18.2834 41.1791 16.5559 41.6142 14.6365 41.6142ZM8.41762 31.211C8.41762 32.6441 8.90387 33.847 9.87638 34.8195C10.8489 35.7664 12.0773 36.2399 13.5617 36.2399C15.046 36.2399 16.2744 35.7664 17.2469 34.8195C18.2194 33.847 18.7057 32.6441 18.7057 31.211C18.7057 29.7778 18.2194 28.5878 17.2469 27.6409C16.2744 26.6684 15.046 26.1821 13.5617 26.1821C12.0773 26.1821 10.8489 26.6684 9.87638 27.6409C8.90387 28.5878 8.41762 29.7778 8.41762 31.211ZM28.7916 12.8614H34.7802V41H28.7916V12.8614ZM39.9257 21.422H45.9143V41H39.9257V21.422ZM39.9257 12.8614H45.9143V18.3509H39.9257V12.8614ZM64.4957 30.4048C64.4957 28.9973 64.1886 27.948 63.5744 27.257C62.9858 26.5404 62.1668 26.1821 61.1176 26.1821C59.8891 26.1821 58.9038 26.6428 58.1617 27.5641C57.4195 28.4598 57.0484 29.765 57.0484 31.4797V41H51.0598V21.422H55.2058L56.2422 23.6869C57.01 22.7656 57.9569 22.0618 59.083 21.5755C60.2346 21.0637 61.4758 20.8078 62.8066 20.8078C65.2379 20.8078 67.1189 21.5371 68.4497 22.9959C69.8061 24.4291 70.4843 26.5148 70.4843 29.2532V41H64.4957V30.4048ZM84.487 40.4242C82.5164 40.4242 80.7634 40.0147 79.2278 39.1957C77.6923 38.3512 76.5023 37.1868 75.6577 35.7024C74.8132 34.2181 74.3909 32.529 74.3909 30.6352C74.3909 28.7413 74.8132 27.0523 75.6577 25.5679C76.5023 24.0836 77.6795 22.9319 79.1894 22.113C80.6994 21.2684 82.4269 20.8461 84.3719 20.8461C85.7538 20.8461 87.0207 21.0637 88.1723 21.4987C89.3496 21.9082 90.3732 22.5096 91.2434 23.303L92.0879 21.422H96.2339V38.3896C96.2339 41.7422 95.2997 44.3526 93.4315 46.2208C91.5633 48.089 88.9401 49.0232 85.5619 49.0232C82.5932 49.0232 80.162 48.3706 78.2681 47.0654C76.3743 45.7601 75.2227 44.0071 74.8132 41.8062H80.9937C81.2752 42.4971 81.7871 43.0346 82.5292 43.4185C83.297 43.8279 84.2439 44.0327 85.37 44.0327C86.9567 44.0327 88.1595 43.6488 88.9785 42.881C89.7974 42.1133 90.2069 40.9872 90.2069 39.5029V38.7735C88.5946 39.8739 86.688 40.4242 84.487 40.4242ZM80.3795 30.6352C80.3795 31.9404 80.8401 33.028 81.7615 33.8982C82.7084 34.7683 83.924 35.2034 85.4084 35.2034C86.8927 35.2034 88.0955 34.7683 89.0169 33.8982C89.9638 33.028 90.4372 31.9404 90.4372 30.6352C90.4372 29.33 89.9638 28.2423 89.0169 27.3722C88.0955 26.502 86.8927 26.067 85.4084 26.067C83.924 26.067 82.7084 26.502 81.7615 27.3722C80.8401 28.2423 80.3795 29.33 80.3795 30.6352Z" fill="#5267AA"/>
<path d="M102.743 5.86317C102.941 5.34769 103.67 5.34769 103.869 5.86317L105.126 9.13206C105.381 9.79541 105.509 10.1271 105.707 10.4061C105.883 10.6533 106.099 10.8693 106.346 11.0452C106.625 11.2435 106.957 11.3711 107.62 11.6262L110.889 12.8835C111.404 13.0817 111.404 13.8111 110.889 14.0093L107.62 15.2666C106.957 15.5217 106.625 15.6493 106.346 15.8476C106.099 16.0235 105.883 16.2395 105.707 16.4867C105.509 16.7658 105.381 17.0974 105.126 17.7607L103.869 21.0296C103.67 21.5451 102.941 21.5451 102.743 21.0296L101.486 17.7607C101.23 17.0974 101.103 16.7658 100.905 16.4867C100.729 16.2395 100.513 16.0235 100.265 15.8476C99.9865 15.6493 99.6548 15.5217 98.9914 15.2666L95.7225 14.0093C95.2071 13.8111 95.2071 13.0817 95.7225 12.8835L98.9914 11.6262C99.6548 11.3711 99.9865 11.2435 100.265 11.0452C100.513 10.8693 100.729 10.6533 100.905 10.4061C101.103 10.1271 101.23 9.79541 101.486 9.13206L102.743 5.86317Z" fill="#5267AA"/>
<mask id="mask0_2147_13626" style="mask-type:alpha" maskUnits="userSpaceOnUse" x="95" y="5" width="17" height="17">
<path d="M102.743 5.86317C102.941 5.34769 103.67 5.34769 103.869 5.86317L105.126 9.13206C105.381 9.79541 105.509 10.1271 105.707 10.4061C105.883 10.6533 106.099 10.8693 106.346 11.0452C106.625 11.2435 106.957 11.3711 107.62 11.6262L110.889 12.8835C111.404 13.0817 111.404 13.8111 110.889 14.0093L107.62 15.2666C106.957 15.5217 106.625 15.6493 106.346 15.8476C106.099 16.0235 105.883 16.2395 105.707 16.4867C105.509 16.7658 105.381 17.0974 105.126 17.7607L103.869 21.0296C103.67 21.5451 102.941 21.5451 102.743 21.0296L101.486 17.7607C101.23 17.0974 101.103 16.7658 100.905 16.4867C100.729 16.2395 100.513 16.0235 100.265 15.8476C99.9865 15.6493 99.6548 15.5217 98.9914 15.2666L95.7225 14.0093C95.2071 13.8111 95.2071 13.0817 95.7225 12.8835L98.9914 11.6262C99.6548 11.3711 99.9865 11.2435 100.265 11.0452C100.513 10.8693 100.729 10.6533 100.905 10.4061C101.103 10.1271 101.23 9.79541 101.486 9.13206L102.743 5.86317Z" fill="white"/>
</mask>
<g mask="url(#mask0_2147_13626)">
<g filter="url(#filter0_f_2147_13626)">
<path d="M103.059 14.5847V22.5764L112.388 13.625H104.018C103.488 13.625 103.059 14.0547 103.059 14.5847Z" fill="url(#paint0_linear_2147_13626)" fill-opacity="0.4"/>
</g>
</g>
<defs>
<filter id="filter0_f_2147_13626" x="101.939" y="12.5053" width="11.5674" height="11.1924" filterUnits="userSpaceOnUse" color-interpolation-filters="sRGB">
<feFlood flood-opacity="0" result="BackgroundImageFix"/>
<feBlend mode="normal" in="SourceGraphic" in2="BackgroundImageFix" result="shape"/>
<feGaussianBlur stdDeviation="0.559829" result="effect1_foregroundBlur_2147_13626"/>
</filter>
<linearGradient id="paint0_linear_2147_13626" x1="109.807" y1="13.8536" x2="103.698" y2="19.7341" gradientUnits="userSpaceOnUse">
<stop stop-color="#F9ECE1"/>
<stop offset="1" stop-color="#DBEDFF"/>
</linearGradient>
</defs>
</svg>
